<svg width="36" height="24" viewBox="0 0 36 24" fill="none" xmlns="http://www.w3.org/2000/svg">
<path fill-rule="evenodd" clip-rule="evenodd" d="M0.49874 12C0.49874 12.3315 0.630435 12.6495 0.864856 12.8839C1.09928 13.1183 1.41722 13.25 1.74874 13.25L31.2312 13.25L23.3637 21.115C23.2475 21.2312 23.1553 21.3692 23.0924 21.521C23.0295 21.6729 22.9972 21.8356 22.9972 22C22.9972 22.1644 23.0295 22.3271 23.0924 22.479C23.1553 22.6308 23.2475 22.7688 23.3637 22.885C23.48 23.0012 23.6179 23.0934 23.7698 23.1563C23.9216 23.2192 24.0844 23.2516 24.2487 23.2516C24.4131 23.2516 24.5759 23.2192 24.7277 23.1563C24.8795 23.0934 25.0175 23.0012 25.1337 22.885L35.1337 12.885C35.2501 12.7689 35.3425 12.631 35.4055 12.4791C35.4685 12.3272 35.501 12.1644 35.501 12C35.501 11.8356 35.4685 11.6728 35.4055 11.5209C35.3425 11.3691 35.2501 11.2311 35.1337 11.115L25.1337 1.11501C25.0175 0.99879 24.8795 0.906598 24.7277 0.843701C24.5759 0.780803 24.4131 0.748431 24.2487 0.748431C24.0844 0.748431 23.9216 0.780803 23.7698 0.843701C23.6179 0.906598 23.48 0.99879 23.3637 1.11501C23.2475 1.23123 23.1553 1.3692 23.0924 1.52105C23.0295 1.6729 22.9972 1.83565 22.9972 2.00001C22.9972 2.16437 23.0295 2.32712 23.0924 2.47897C23.1553 2.63082 23.2475 2.76879 23.3637 2.88501L31.2312 10.75L1.74874 10.75C1.41722 10.75 1.09928 10.8817 0.864856 11.1161C0.630435 11.3505 0.49874 11.6685 0.49874 12Z" fill="white"/>
</svg>
