<svg width="36" height="24" viewBox="0 0 36 24" fill="none" xmlns="http://www.w3.org/2000/svg">
<path fill-rule="evenodd" clip-rule="evenodd" d="M35.5013 12C35.5013 11.6685 35.3696 11.3505 35.1351 11.1161C34.9007 10.8817 34.5828 10.75 34.2513 10.75L4.76876 10.75L12.6363 2.88499C12.7525 2.76877 12.8447 2.6308 12.9076 2.47895C12.9705 2.3271 13.0028 2.16435 13.0028 1.99999C13.0028 1.83563 12.9705 1.67288 12.9076 1.52104C12.8447 1.36919 12.7525 1.23121 12.6363 1.11499C12.52 0.998774 12.3821 0.906584 12.2302 0.843686C12.0784 0.780788 11.9156 0.748415 11.7513 0.748415C11.5869 0.748415 11.4241 0.780788 11.2723 0.843686C11.1204 0.906584 10.9825 0.998774 10.8663 1.11499L0.866256 11.115C0.749848 11.2311 0.657491 11.369 0.594475 11.5209C0.531459 11.6728 0.499021 11.8356 0.499021 12C0.499021 12.1644 0.531458 12.3272 0.594474 12.4791C0.657491 12.6309 0.749848 12.7689 0.866256 12.885L10.8663 22.885C10.9825 23.0012 11.1204 23.0934 11.2723 23.1563C11.4241 23.2192 11.5869 23.2516 11.7513 23.2516C11.9156 23.2516 12.0784 23.2192 12.2302 23.1563C12.3821 23.0934 12.52 23.0012 12.6363 22.885C12.7525 22.7688 12.8447 22.6308 12.9076 22.479C12.9705 22.3271 13.0028 22.1644 13.0028 22C13.0028 21.8356 12.9705 21.6729 12.9076 21.521C12.8447 21.3692 12.7525 21.2312 12.6363 21.115L4.76876 13.25L34.2513 13.25C34.5828 13.25 34.9007 13.1183 35.1351 12.8839C35.3696 12.6495 35.5013 12.3315 35.5013 12Z" fill="white"/>
</svg>
