<svg width="25" height="24" viewBox="0 0 25 24" fill="none" xmlns="http://www.w3.org/2000/svg">
<path d="M16.7676 3C19.8052 3 22.2676 5.5 22.2676 9C22.2676 16 14.7676 20 12.2676 21.5C9.76758 20 2.26758 16 2.26758 9C2.26758 5.5 4.76758 3 7.76758 3C9.62755 3 11.2676 4 12.2676 5C13.2676 4 14.9076 3 16.7676 3ZM13.2015 18.6038C14.0831 18.0485 14.8776 17.4955 15.6225 16.9029C18.6013 14.533 20.2676 11.9435 20.2676 9C20.2676 6.64076 18.7306 5 16.7676 5C15.6917 5 14.5269 5.56911 13.6818 6.41421L12.2676 7.82843L10.8534 6.41421C10.0083 5.56911 8.84348 5 7.76758 5C5.82664 5 4.26758 6.6565 4.26758 9C4.26758 11.9435 5.93385 14.533 8.91272 16.9029C9.65758 17.4955 10.4521 18.0485 11.3337 18.6038C11.6322 18.7919 11.9287 18.9729 12.2676 19.1752C12.6065 18.9729 12.903 18.7919 13.2015 18.6038Z" fill="black"/>
</svg>
