<svg xmlns="http://www.w3.org/2000/svg" viewBox="0 0 194.42 31.64"><defs><style>.cls-1{fill:#165a4a;}.cls-2{fill:#1f1f1f;}</style></defs><g id="Layer_2" data-name="Layer 2"><g id="Layer_1-2" data-name="Layer 1"><path class="cls-1" d="M25.38,0H11.85A6.9,6.9,0,0,0,5.08,7V8.79a8.63,8.63,0,0,1,8.46,8.79H23.69a8.63,8.63,0,0,1,8.46-8.79V7A6.9,6.9,0,0,0,25.38,0Zm6.77,12.31a5.18,5.18,0,0,0-5.08,5.27v5.27H23.69V21.1H13.54v1.75H10.15V17.58a5.17,5.17,0,0,0-5.07-5.27A5.18,5.18,0,0,0,0,17.58a5.25,5.25,0,0,0,3.38,5v9.09H6.77V29.89H30.46v1.75h3.38V22.55a5.25,5.25,0,0,0,3.39-5A5.18,5.18,0,0,0,32.15,12.31Z"/><path class="cls-2" d="M55.26,4c3,0,6.88,1.17,7.3,5.7H59C58.81,8,57.77,7,55.53,7c-2,0-3.24.75-3.24,2.21,0,1.28.94,1.83,2.64,2.16l2.08.42c3.47.7,5.45,2,5.45,5,0,3.36-2.77,5.55-6.93,5.55-4.38,0-7.43-2.34-7.69-6.15h3.52c.28,1.85,1.92,3,4.37,3,2,0,3.08-.7,3.08-1.95,0-.79-.44-1.59-2.35-1.93l-2.86-.55c-3.52-.68-5.06-2.45-5.06-5.19C48.54,6.16,51.23,4,55.26,4ZM71.4,9.26A6.28,6.28,0,0,1,78,15.8a6.61,6.61,0,0,1-13.21,0A6.28,6.28,0,0,1,71.4,9.26Zm0,10a3.16,3.16,0,0,0,3.18-3.41,3.2,3.2,0,1,0-6.39,0A3.17,3.17,0,0,0,71.4,19.21ZM90.33,9.57v2.87H85.51V22H82.09V12.44H78.65V9.57h3.44V8.5c0-3.31,2.35-5.31,5.5-5.31a9.6,9.6,0,0,1,2.71.41l-.47,2.89A7.09,7.09,0,0,0,88,6.13a2.26,2.26,0,0,0-2.5,2.37V9.57Zm10.54,0h3.41V22h-3.41v-.7a6.6,6.6,0,0,1-3.57,1,6.36,6.36,0,0,1-6.21-6.51A6.37,6.37,0,0,1,97.3,9.26a6.6,6.6,0,0,1,3.57,1Zm-3.05,9.64a3.47,3.47,0,0,0,3.05-1.46V13.82a3.47,3.47,0,0,0-3.05-1.46,3.31,3.31,0,0,0-3.31,3.44A3.3,3.3,0,0,0,97.82,19.21Zm12.05-1.51c.21,1.41,1.22,1.85,2.68,1.85,1.3,0,2.22-.34,2.22-1,0-.5-.42-.91-1.28-1.07L110.81,17c-1.83-.31-3.68-1.3-3.68-3.65,0-2.55,2.16-4.09,5.32-4.09,2.24,0,5.21.63,5.5,4.2h-3.16c-.08-1.12-1.14-1.49-2.34-1.49s-1.93.44-1.93,1,.34,1,1.54,1.23l2.24.36c1.93.34,3.72,1.23,3.72,3.63,0,2.76-2.39,4.11-5.55,4.11-2.73,0-5.5-1-5.76-4.64Zm16.6-8.44a6.28,6.28,0,0,1,6.59,6.54,6.61,6.61,0,0,1-13.21,0A6.28,6.28,0,0,1,126.47,9.26Zm0,10a3.16,3.16,0,0,0,3.18-3.41,3.2,3.2,0,1,0-6.38,0A3.16,3.16,0,0,0,126.47,19.21Zm18.19-9.64h3.42V22.08c0,3.88-2.66,6.23-6.36,6.23s-6.23-2.22-6.49-5.35h3.47c.15,1.33,1.25,2.25,3,2.25a2.84,2.84,0,0,0,2.94-3.13V20.49a6.57,6.57,0,0,1-3.57,1,6.16,6.16,0,0,1-6.2-6,6,6,0,0,1,6.2-6.23,6.48,6.48,0,0,1,3.57,1Zm-3,9a3.5,3.5,0,0,0,3-1.56v-3.2a3.48,3.48,0,0,0-3-1.57,3.12,3.12,0,0,0-3.3,3.29A3.25,3.25,0,0,0,141.61,18.53Zm15.65-9.27a6.28,6.28,0,0,1,6.6,6.54,6.61,6.61,0,0,1-13.22,0A6.28,6.28,0,0,1,157.26,9.26Zm0,10a3.16,3.16,0,0,0,3.18-3.41,3.2,3.2,0,1,0-6.38,0A3.16,3.16,0,0,0,157.26,19.21Zm15.3-10a6.28,6.28,0,0,1,6.59,6.54,6.61,6.61,0,0,1-13.21,0A6.28,6.28,0,0,1,172.56,9.26Zm0,10a3.16,3.16,0,0,0,3.18-3.41,3.2,3.2,0,1,0-6.39,0A3.17,3.17,0,0,0,172.56,19.21ZM191,3.5h3.41V22H191v-.7a6.6,6.6,0,0,1-3.57,1,6.37,6.37,0,0,1-6.21-6.54,6.36,6.36,0,0,1,6.21-6.51,6.6,6.6,0,0,1,3.57,1Zm-3,15.71a3.47,3.47,0,0,0,3-1.46V13.82a3.47,3.47,0,0,0-3-1.46,3.3,3.3,0,0,0-3.31,3.41A3.31,3.31,0,0,0,188,19.21Z"/></g></g></svg>