<svg width="197" height="32" viewBox="0 0 197 32" fill="none" xmlns="http://www.w3.org/2000/svg">
<path d="M25.6154 0.178223H12.0781C8.33986 0.178223 5.30942 3.32651 5.30942 7.21013V8.9681C9.98221 8.9681 13.7703 12.9035 13.7703 17.758H23.9233C23.9233 12.9035 27.7114 8.9681 32.3841 8.9681V7.21013C32.3841 3.32651 29.3536 0.178223 25.6154 0.178223ZM32.3841 12.4841C29.5804 12.4841 27.3076 14.8452 27.3076 17.758V23.0319H23.9233V21.2739H13.7703V23.0319H10.3859V17.758C10.3859 14.8452 8.11309 12.4841 5.30942 12.4841C2.50575 12.4841 0.23291 14.8452 0.23291 17.758C0.23291 20.0542 1.64555 22.0079 3.61725 22.7318V31.8218H7.00159V30.0638H30.692V31.8218H34.0763V22.7318C36.048 22.0079 37.4606 20.0542 37.4606 17.758C37.4606 14.8452 35.1879 12.4841 32.3841 12.4841Z" fill="#165A4A"/>
<path d="M55.4975 4.14511C58.4943 4.14511 62.3772 5.31779 62.7941 9.85212H59.2761C59.0416 8.21038 57.9992 7.19406 55.7581 7.19406C53.8036 7.19406 52.5267 7.94979 52.5267 9.40911C52.5267 10.686 53.4648 11.2333 55.1587 11.572L57.2435 11.989C60.7094 12.6926 62.6899 14.0216 62.6899 16.9403C62.6899 20.3019 59.9276 22.4909 55.7581 22.4909C51.3801 22.4909 48.3311 20.1456 48.0705 16.3409H51.5886C51.8752 18.1911 53.517 19.3377 55.9665 19.3377C57.921 19.3377 59.0416 18.6341 59.0416 17.3833C59.0416 16.6015 58.5985 15.7937 56.6962 15.4549L53.8297 14.9076C50.3117 14.2301 48.7742 12.4581 48.7742 9.72183C48.7742 6.3341 51.4583 4.14511 55.4975 4.14511ZM71.6323 9.43517C75.5152 9.43517 78.2254 12.1193 78.2254 15.9761C78.2254 19.8068 75.5152 22.4909 71.6323 22.4909C67.7234 22.4909 65.0132 19.8068 65.0132 15.9761C65.0132 12.1193 67.7234 9.43517 71.6323 9.43517ZM71.6323 19.3899C73.5086 19.3899 74.8116 17.9827 74.8116 15.9761C74.8116 13.9434 73.5086 12.5362 71.6323 12.5362C69.73 12.5362 68.427 13.9434 68.427 15.9761C68.427 17.9827 69.73 19.3899 71.6323 19.3899ZM90.5614 9.74789V12.6144H85.7404V22.1782H82.3267V12.6144H78.8868V9.74789H82.3267V8.67945C82.3267 5.3699 84.672 3.36333 87.8252 3.36333C88.7112 3.36333 89.5451 3.49363 90.5354 3.78028L90.0663 6.67288C89.4409 6.4644 88.6851 6.30804 88.2421 6.30804C86.7046 6.30804 85.7404 7.22012 85.7404 8.67945V9.74789H90.5614ZM101.099 9.74789H104.513V22.1782H101.099V21.4746C100.135 22.1 98.9104 22.4909 97.5293 22.4909C94.0894 22.4909 91.3271 19.5723 91.3271 15.9761C91.3271 12.3538 94.0894 9.43517 97.5293 9.43517C98.9104 9.43517 100.135 9.82606 101.099 10.4515V9.74789ZM98.0505 19.3899C99.171 19.3899 100.292 19.0772 101.099 17.9305V13.9956C100.292 12.849 99.171 12.5362 98.0505 12.5362C96.096 12.5362 94.7409 14.0998 94.7409 15.9761C94.7409 17.8263 96.096 19.3899 98.0505 19.3899ZM110.1 17.8784C110.308 19.2856 111.324 19.7286 112.784 19.7286C114.087 19.7286 114.999 19.3899 114.999 18.6863C114.999 18.1911 114.582 17.7742 113.722 17.6178L111.038 17.1488C109.214 16.836 107.363 15.8458 107.363 13.5004C107.363 10.9466 109.526 9.40911 112.68 9.40911C114.921 9.40911 117.891 10.0345 118.178 13.6047H115.025C114.947 12.4841 113.878 12.1193 112.68 12.1193C111.377 12.1193 110.751 12.5623 110.751 13.1617C110.751 13.6307 111.09 14.178 112.289 14.3865L114.53 14.7513C116.458 15.0901 118.256 15.9761 118.256 18.3735C118.256 21.1358 115.859 22.4909 112.706 22.4909C109.969 22.4909 107.207 21.4746 106.946 17.8524L110.1 17.8784ZM126.703 9.43517C130.586 9.43517 133.296 12.1193 133.296 15.9761C133.296 19.8068 130.586 22.4909 126.703 22.4909C122.794 22.4909 120.084 19.8068 120.084 15.9761C120.084 12.1193 122.794 9.43517 126.703 9.43517ZM126.703 19.3899C128.579 19.3899 129.882 17.9827 129.882 15.9761C129.882 13.9434 128.579 12.5362 126.703 12.5362C124.801 12.5362 123.498 13.9434 123.498 15.9761C123.498 17.9827 124.801 19.3899 126.703 19.3899ZM144.897 9.74789H148.31V22.2564C148.31 26.1393 145.652 28.4846 141.952 28.4846C138.382 28.4846 135.724 26.2695 135.463 23.1424H138.929C139.085 24.4715 140.18 25.3835 141.952 25.3835C143.62 25.3835 144.897 24.289 144.897 22.2564V20.6668C143.932 21.2922 142.708 21.657 141.326 21.657C137.887 21.657 135.124 18.8687 135.124 15.6634C135.124 11.9369 137.887 9.43517 141.326 9.43517C142.708 9.43517 143.932 9.8 144.897 10.4254V9.74789ZM141.848 18.7123C142.968 18.7123 144.089 18.3214 144.897 17.1488V13.9434C144.089 12.7708 142.968 12.3799 141.848 12.3799C139.893 12.3799 138.538 13.6829 138.538 15.6634C138.538 17.1227 139.893 18.7123 141.848 18.7123ZM157.496 9.43517C161.379 9.43517 164.089 12.1193 164.089 15.9761C164.089 19.8068 161.379 22.4909 157.496 22.4909C153.587 22.4909 150.877 19.8068 150.877 15.9761C150.877 12.1193 153.587 9.43517 157.496 9.43517ZM157.496 19.3899C159.372 19.3899 160.675 17.9827 160.675 15.9761C160.675 13.9434 159.372 12.5362 157.496 12.5362C155.594 12.5362 154.291 13.9434 154.291 15.9761C154.291 17.9827 155.594 19.3899 157.496 19.3899ZM172.791 9.43517C176.674 9.43517 179.384 12.1193 179.384 15.9761C179.384 19.8068 176.674 22.4909 172.791 22.4909C168.882 22.4909 166.172 19.8068 166.172 15.9761C166.172 12.1193 168.882 9.43517 172.791 9.43517ZM172.791 19.3899C174.667 19.3899 175.97 17.9827 175.97 15.9761C175.97 13.9434 174.667 12.5362 172.791 12.5362C170.888 12.5362 169.585 13.9434 169.585 15.9761C169.585 17.9827 170.888 19.3899 172.791 19.3899ZM191.238 3.67604H194.652V22.1782H191.238V21.4746C190.274 22.1 189.049 22.4909 187.668 22.4909C184.229 22.4909 181.466 19.5723 181.466 15.95C181.466 12.3538 184.229 9.43517 187.668 9.43517C189.049 9.43517 190.274 9.82606 191.238 10.4515V3.67604ZM188.19 19.3899C189.31 19.3899 190.431 19.0772 191.238 17.9305V13.9956C190.431 12.849 189.31 12.5362 188.19 12.5362C186.235 12.5362 184.88 14.0998 184.88 15.95C184.88 17.8263 186.235 19.3899 188.19 19.3899Z" fill="#1F1F1F"/>
</svg>
