<svg width="25" height="24" viewBox="0 0 25 24" fill="none" xmlns="http://www.w3.org/2000/svg">
<path d="M18.2986 16.6168L22.5813 20.8995L21.1671 22.3137L16.8844 18.031C15.3445 19.263 13.3916 20 11.2676 20C6.29958 20 2.26758 15.968 2.26758 11C2.26758 6.032 6.29958 2 11.2676 2C16.2356 2 20.2676 6.032 20.2676 11C20.2676 13.124 19.5306 15.0769 18.2986 16.6168ZM16.2923 15.8748C17.5151 14.6146 18.2676 12.8956 18.2676 11C18.2676 7.1325 15.1351 4 11.2676 4C7.40008 4 4.26758 7.1325 4.26758 11C4.26758 14.8675 7.40008 18 11.2676 18C13.1632 18 14.8822 17.2475 16.1424 16.0247L16.2923 15.8748Z" fill="black"/>
</svg>
