<svg width="25" height="24" viewBox="0 0 25 24" fill="none" xmlns="http://www.w3.org/2000/svg">
<path d="M4.27246 16V4H2.27246V2H5.27246C5.82475 2 6.27246 2.44772 6.27246 3V15H18.7109L20.7109 7H8.27246V5H21.9917C22.544 5 22.9917 5.44772 22.9917 6C22.9917 6.08176 22.9817 6.16322 22.9618 6.24254L20.4618 16.2425C20.3506 16.6877 19.9506 17 19.4917 17H5.27246C4.72018 17 4.27246 16.5523 4.27246 16ZM6.27246 23C5.16789 23 4.27246 22.1046 4.27246 21C4.27246 19.8954 5.16789 19 6.27246 19C7.37703 19 8.27246 19.8954 8.27246 21C8.27246 22.1046 7.37703 23 6.27246 23ZM18.2725 23C17.1679 23 16.2725 22.1046 16.2725 21C16.2725 19.8954 17.1679 19 18.2725 19C19.3771 19 20.2725 19.8954 20.2725 21C20.2725 22.1046 19.3771 23 18.2725 23Z" fill="black"/>
</svg>
