<svg width="25" height="24" viewBox="0 0 25 24" fill="none" xmlns="http://www.w3.org/2000/svg">
<path d="M20.2676 22H18.2676V20C18.2676 18.3431 16.9245 17 15.2676 17H9.26758C7.61073 17 6.26758 18.3431 6.26758 20V22H4.26758V20C4.26758 17.2386 6.50616 15 9.26758 15H15.2676C18.029 15 20.2676 17.2386 20.2676 20V22ZM12.2676 13C8.95387 13 6.26758 10.3137 6.26758 7C6.26758 3.68629 8.95387 1 12.2676 1C15.5813 1 18.2676 3.68629 18.2676 7C18.2676 10.3137 15.5813 13 12.2676 13ZM12.2676 11C14.4767 11 16.2676 9.20914 16.2676 7C16.2676 4.79086 14.4767 3 12.2676 3C10.0584 3 8.26758 4.79086 8.26758 7C8.26758 9.20914 10.0584 11 12.2676 11Z" fill="black"/>
</svg>
